<svg width="80" height="80" viewBox="0 0 80 80" fill="none" xmlns="http://www.w3.org/2000/svg">
<g clip-path="url(#clip0_129_217)">
<path d="M18.1742 41.9354C16.8581 41.9354 15.6219 42.6361 14.9484 43.7612L13.0065 46.9986L12.9032 46.7922V42.809L17.0981 41.1302C18.4684 40.5831 19.3548 39.2761 19.3548 37.7999C19.3548 36.6464 18.7948 35.5586 17.8606 34.8851C16.9239 34.2128 15.7135 34.0322 14.6219 34.3999L14.1652 34.5535L14.6865 33.5109C15.2077 32.467 15.4839 31.2993 15.4839 30.1341C15.4839 28.1032 13.8323 26.4515 11.8013 26.4515C10.3974 26.4515 9.13677 27.2309 8.5071 28.4877L5.29806 34.907L2.60645 48.1341L2.58065 65.1612L3.59355 70.3225H0V79.3548H19.3548V70.3225H15.4839V61.6812L17.8477 58.1354L21.3626 48.8606C21.7432 47.8451 21.9355 46.7806 21.9355 45.6967C21.9355 43.6232 20.2477 41.9354 18.1742 41.9354ZM15.4465 36.8451C15.7561 36.7419 16.0877 36.7909 16.3548 36.9819C16.6219 37.1728 16.7742 37.4709 16.7742 37.7999C16.7742 38.2141 16.5265 38.5793 16.1419 38.7341L12.9032 40.0296V37.7006L15.4465 36.8451ZM16.7742 72.9031V76.7741H2.58065V72.9031H16.7742ZM18.9458 47.9535L15.6194 56.827L12.9032 60.8993V70.3225H6.21936L5.16129 65.0335V48.5148L7.68258 35.907L10.8155 29.6438C11.0026 29.2657 11.3806 29.0322 11.8013 29.0322C12.4077 29.0322 12.9032 29.5277 12.9032 30.1341C12.9032 30.9006 12.7213 31.6696 12.3781 32.3586L10.3226 36.4696V47.4025L12.8 52.3573L17.1613 45.089C17.3729 44.7354 17.7613 44.5161 18.1742 44.5161C18.8258 44.5161 19.3548 45.0451 19.3548 45.6967C19.3548 46.4709 19.2181 47.2309 18.9458 47.9535Z" fill="#D4AF37"/>
<path d="M76.413 70.3225L77.3949 65.4141L77.4194 48.387L74.813 35.2309L71.493 28.4877C70.8646 27.2309 69.6026 26.4515 68.1988 26.4515C66.1678 26.4515 64.5162 28.1032 64.5162 30.1341C64.5162 31.298 64.7923 32.467 65.3136 33.5122L65.8336 34.5522L65.3781 34.3986C64.2878 34.0296 63.0762 34.2115 62.1394 34.8838C61.2052 35.5586 60.6452 36.6464 60.6452 37.7999C60.6452 39.2773 61.5317 40.5831 62.9007 41.1302L67.0968 42.809V46.7922L66.9936 46.9986L65.0517 43.7625C64.3781 42.6361 63.142 41.9354 61.8259 41.9354C59.7523 41.9354 58.0646 43.6232 58.0646 45.6967C58.0646 46.7806 58.2568 47.8451 58.6375 48.8606L62.0168 57.8722L64.5162 61.6812V70.3225H60.6452V79.3548H80.0001V70.3225H76.413ZM63.8568 38.7341C63.4736 38.5793 63.2259 38.2141 63.2259 37.7999C63.2259 37.4709 63.3781 37.1741 63.6452 36.9819C63.9123 36.7896 64.2413 36.7406 64.5536 36.8451L67.0968 37.7006V40.0296L63.8568 38.7341ZM64.382 56.827L61.0555 47.9535C60.782 47.2309 60.6452 46.4709 60.6452 45.6967C60.6452 45.0451 61.1743 44.5161 61.8259 44.5161C62.2388 44.5161 62.6272 44.7354 62.8388 45.089L67.2001 52.3561L69.6775 47.4012V36.4683L67.622 32.3586C67.2788 31.6709 67.0968 30.9006 67.0968 30.1341C67.0968 29.5277 67.5923 29.0322 68.1988 29.0322C68.6181 29.0322 68.9962 29.2657 69.1846 29.6425L72.3175 35.9057L74.8388 48.5148V65.0348L73.7807 70.3225H67.0968V60.8993L64.382 56.827ZM77.4194 76.7741H63.2259V72.9031H77.4194V76.7741Z" fill="#D4AF37"/>
<path d="M56.3084 23.8709H59.3548V16.129H56.3084C55.8968 14.3793 55.2142 12.729 54.271 11.2051L56.4232 9.05159L50.9497 3.57804L48.7948 5.72901C47.2697 4.78579 45.6206 4.10321 43.8709 3.69159V0.645142H36.129V3.69159C34.3793 4.10321 32.729 4.78579 31.2051 5.72901L29.0516 3.57675L23.578 9.0503L25.7303 11.2039C24.7871 12.729 24.1045 14.378 23.6929 16.1277H20.6451V23.8697H23.6916C24.1032 25.6193 24.7858 27.2697 25.729 28.7935L23.5768 30.9471L29.0503 36.4206L31.0271 34.4439C31.0116 34.5742 30.9871 34.7019 30.9871 34.8361C30.9871 35.9845 31.5935 36.9858 32.498 37.5587C32.3613 37.9174 32.2774 38.3019 32.2774 38.7071C32.2774 40.4864 33.7239 41.9329 35.5032 41.9329H44.5355C46.3148 41.9329 47.7613 40.4864 47.7613 38.7071C47.7613 38.3006 47.6774 37.9161 47.5406 37.5587C48.4451 36.9871 49.0516 35.9845 49.0516 34.8361C49.0516 34.7174 49.0297 34.6039 49.0168 34.489L50.9484 36.4206L56.4219 30.9471L54.2697 28.7935C55.2142 27.2709 55.8955 25.6206 56.3084 23.8709ZM44.5368 39.3548H35.5045C35.1497 39.3548 34.8593 39.0645 34.8593 38.7097C34.8593 38.3548 35.1497 38.0645 35.5045 38.0645H44.5368C44.8916 38.0645 45.1819 38.3548 45.1819 38.7097C45.1819 39.0645 44.8916 39.3548 44.5368 39.3548ZM45.8271 35.4838H44.5368H35.5045H34.2142C33.8593 35.4838 33.569 35.1935 33.569 34.8387C33.569 34.4838 33.8593 34.1935 34.2142 34.1935H45.8271C46.1819 34.1935 46.4722 34.4838 46.4722 34.8387C46.4722 35.1935 46.1819 35.4838 45.8271 35.4838ZM41.3109 23.6335C42.809 23.0993 43.8916 21.68 43.8916 20C43.8916 17.8658 42.1548 16.129 40.0206 16.129C37.8864 16.129 36.1497 17.8658 36.1497 20C36.1497 21.68 37.2322 23.0993 38.7303 23.6335V31.6129H36.1497V28.1871L35.5058 27.8142C32.72 26.2 30.9884 23.2064 30.9884 20C30.9884 15.0206 35.0413 10.9677 40.0206 10.9677C45 10.9677 49.0529 15.0206 49.0529 20C49.0529 23.2051 47.3213 26.2 44.5355 27.8142L43.8916 28.1871V31.6129H41.3109V23.6335ZM40.0206 21.2903C39.3084 21.2903 38.7303 20.7122 38.7303 20C38.7303 19.2877 39.3084 18.7097 40.0206 18.7097C40.7329 18.7097 41.3109 19.2877 41.3109 20C41.3109 20.7122 40.7329 21.2903 40.0206 21.2903ZM53.9793 22.3664C53.6219 24.4955 52.8077 26.4632 51.5613 28.2129L50.929 29.1006L52.7742 30.9484L50.9497 32.7729L49.1019 30.9251L48.2129 31.5587C47.9768 31.7264 47.7187 31.8942 47.4426 32.0606C47.1445 31.8864 46.8219 31.7471 46.4722 31.6761V29.6439C49.6735 27.498 51.6335 23.8684 51.6335 19.9974C51.6335 13.5935 46.4245 8.3845 40.0206 8.3845C33.6168 8.3845 28.4077 13.5935 28.4077 19.9974C28.4077 23.8671 30.3677 27.4968 33.569 29.6426V31.6761C33.2116 31.7484 32.8826 31.8916 32.578 32.0722C32.2968 31.9019 32.0309 31.7316 31.7884 31.5587L30.8993 30.9251L29.0516 32.7729L27.2271 30.9484L29.0722 29.1006L28.44 28.2129C27.1935 26.4632 26.3793 24.4955 26.0219 22.3664L25.8387 21.2903H23.2258V18.7097H25.8387L26.0206 17.6335C26.378 15.5045 27.1922 13.5368 28.4387 11.7871L29.0709 10.8993L27.2258 9.05159L29.0503 7.22708L30.898 9.07224L31.7858 8.43998C33.5355 7.19353 35.5032 6.37933 37.6322 6.02192L38.7097 5.83869V3.22579H41.2903V5.83869L42.3664 6.02063C44.4955 6.37804 46.4632 7.19224 48.2129 8.43869L49.1006 9.07095L50.9484 7.22579L52.7729 9.0503L50.9277 10.898L51.56 11.7858C52.8064 13.5355 53.6206 15.5032 53.978 17.6322L54.1613 18.7097H56.7742V21.2903H54.1613L53.9793 22.3664Z" fill="#D4AF37"/>
<path d="M41.2904 44.5161H38.7097V47.0968H41.2904V44.5161Z" fill="#D4AF37"/>
<path d="M41.2904 49.6774H38.7097V52.258H41.2904V49.6774Z" fill="#D4AF37"/>
<path d="M41.2904 54.8387H38.7097V57.4194H41.2904V54.8387Z" fill="#D4AF37"/>
<path d="M41.2904 60H38.7097V62.5806H41.2904V60Z" fill="#D4AF37"/>
</g>
<defs>
<clipPath id="clip0_129_217">
<rect width="80" height="80" fill="white"/>
</clipPath>
</defs>
</svg>
