<svg width="52" height="54" viewBox="0 0 52 54" fill="none" xmlns="http://www.w3.org/2000/svg">
<path fill-rule="evenodd" clip-rule="evenodd" d="M49.6361 18.5032C49.6361 15.1738 49.2556 12.225 49.1367 11.1073C49.0928 10.7469 48.9776 10.3988 48.7978 10.0834C48.6179 9.768 48.3771 9.49155 48.0894 9.27019C47.8016 9.04883 47.4726 8.88698 47.1216 8.79409C46.7707 8.70119 46.4047 8.67911 46.0451 8.72913C45.3317 8.72913 43.7859 9.0145 42.0499 9.08585C40.4545 9.17702 38.8542 9.049 37.2936 8.70535C35.4112 8.06076 33.6506 7.10409 32.0855 5.87538C30.7295 4.9204 29.4422 3.87145 28.233 2.73626C27.7265 2.26315 27.0592 2 26.3662 2C25.6731 2 25.0058 2.26315 24.4993 2.73626C23.3364 3.82594 22.1137 4.85011 20.837 5.80404C19.2622 7.04891 17.4951 8.02885 15.6052 8.70535C13.8276 9.10699 12.0016 9.25115 10.183 9.13341C8.69399 9.07175 7.20942 8.92885 5.73595 8.70535C5.37589 8.65197 5.00877 8.67165 4.65648 8.7632C4.30419 8.85476 3.97394 9.01632 3.68543 9.23825C3.39692 9.46018 3.15605 9.73794 2.9772 10.055C2.79834 10.372 2.68515 10.7218 2.64439 11.0835C2.52548 12.225 2.21633 15.1976 2.07364 18.5032C1.87367 21.8059 2.08134 25.1206 2.69195 28.3724C4.41381 33.76 7.58065 38.5719 11.8477 42.2844C15.2394 45.4836 18.917 48.3653 22.8346 50.8932C23.8846 51.6141 25.1282 52 26.4018 52C27.6754 52 28.9191 51.6141 29.969 50.8932C33.6788 48.2994 37.1489 45.3785 40.3376 42.1655C44.3549 38.4259 47.3299 33.7052 48.9702 28.4675C49.595 25.1853 49.8186 21.8394 49.6361 18.5032Z" stroke="#D4AF37" stroke-width="4" stroke-linecap="round" stroke-linejoin="round"/>
<path d="M37.7455 44.4009V41.238C37.7455 38.0844 36.4927 35.06 34.2628 32.8301C32.0329 30.6002 29.0084 29.3474 25.8548 29.3474C22.7013 29.3474 19.6768 30.6002 17.4469 32.8301C15.217 35.06 13.9642 38.0844 13.9642 41.238V44.4009" stroke="#D4AF37" stroke-width="4" stroke-linecap="round" stroke-linejoin="round"/>
<path d="M25.8549 26.9693C29.1384 26.9693 31.8002 24.3075 31.8002 21.024C31.8002 17.7405 29.1384 15.0787 25.8549 15.0787C22.5713 15.0787 19.9095 17.7405 19.9095 21.024C19.9095 24.3075 22.5713 26.9693 25.8549 26.9693Z" stroke="#D4AF37" stroke-width="4" stroke-linecap="round" stroke-linejoin="round"/>
</svg>
