<svg width="50" height="50" viewBox="0 0 50 50" fill="none" xmlns="http://www.w3.org/2000/svg">
<g clip-path="url(#clip0_129_181)">
<path d="M16.6667 22.9167C22.4197 22.9167 27.0834 18.253 27.0834 12.5C27.0834 6.74707 22.4197 2.08337 16.6667 2.08337C10.9137 2.08337 6.25004 6.74707 6.25004 12.5C6.25004 18.253 10.9137 22.9167 16.6667 22.9167ZM16.6667 22.9167C20.8594 22.9167 24.5248 24.4988 27.1321 27.1323C28.651 28.6665 29.8108 30.5575 30.5067 32.7003M16.6667 22.9167C8.33337 22.9167 2.08337 29.1667 2.08337 37.5V47.9167H22.9167M25 39.2157L33.7302 45.8334L47.9167 27.0834" stroke="white" stroke-width="5"/>
</g>
<defs>
<clipPath id="clip0_129_181">
<rect width="50" height="50" fill="white"/>
</clipPath>
</defs>
</svg>
