<svg width="68" height="80" viewBox="0 0 68 80" fill="none" xmlns="http://www.w3.org/2000/svg">
<path d="M64.5076 10.9151L34.921 0.239014C34.4853 0.0809018 34.0253 1.79574e-05 33.5618 0C33.0969 0 32.6356 0.0805664 32.1919 0.241431L2.71133 10.9176C1.11799 11.4955 7.8125e-08 13.0093 0 14.7044V39.9999C0 45.6473 1.82026 51.2955 5.29402 56.7872C7.95674 60.9963 11.6628 65.124 16.2516 69.0564C23.9242 75.6312 31.5372 79.4237 31.857 79.5819C32.4151 79.8569 33.029 80 33.6512 80C34.2541 80 34.8611 79.8646 35.4175 79.5939C35.7374 79.4382 43.3469 75.7047 51.0267 69.156C55.6201 65.2394 59.2705 61.1117 61.9351 56.8879C65.4075 51.3844 67.1384 45.7026 67.1384 39.9999V14.7044C67.1386 13.0066 66.1047 11.4909 64.5076 10.9151ZM6.44531 39.9811V17.7163C6.44531 16.8687 6.96469 16.1117 7.7615 15.8227L32.8209 6.70608C33.0443 6.62524 33.3008 6.56562 33.5693 6.56562V40.0001H60.8843C60.8859 40.0001 60.8878 40.0364 60.8878 40.0595C60.8824 47.3451 57.2129 54.5657 49.9826 61.5962C44.3362 67.0868 37.9213 71.0053 34.6215 72.8538C34.3156 73.0254 33.8381 73.1062 33.5696 73.1062V39.9897L6.44531 39.9811Z" fill="#D4AF37"/>
</svg>
